<svg width="386" height="324" viewBox="0 0 386 324" fill="none" xmlns="http://www.w3.org/2000/svg">
<path fill-rule="evenodd" clip-rule="evenodd" d="M228.951 92.5663H205.844C203.345 92.5663 201.306 90.5271 201.476 88.051C204.582 38.4307 258.707 11.7027 289.896 9.2751C292.371 9.08089 294.386 11.0958 294.386 13.5962V43.9899C294.386 46.5146 292.299 48.5052 289.799 48.7237C263.076 51.0542 245.698 76.5198 241.693 88.7307C240.916 91.0855 242.81 93.1247 245.31 93.1247H270.697C272.566 93.1247 274.071 94.6298 274.071 96.4991V98.7567C274.071 100.626 272.566 102.155 270.697 102.155H245.31C242.81 102.155 240.771 104.195 240.965 106.671C243.271 137.841 269.29 152.989 289.872 154.956C292.347 155.174 294.386 157.189 294.386 159.69V188.991C294.386 191.491 292.299 193.506 289.799 193.409C223.781 190.666 203.102 137.283 201.451 106.622C201.306 104.122 203.32 102.155 205.82 102.155H228.951C231.451 102.155 233.465 100.116 233.465 97.64V97.0817C233.465 94.5812 231.451 92.5663 228.951 92.5663ZM3.3737 0.632812H35.5331C37.402 0.632812 38.9068 2.13793 38.9068 4.00719V10.9501C38.9068 13.4506 41.4068 14.8343 43.6154 13.6205C51.1153 9.49358 67.3527 2.30786 94.1724 2.30786C146.55 2.30786 182.738 39.4988 184.364 88.051C184.413 89.9202 182.884 91.4254 181.015 91.4254H149.462C147.593 91.4254 146.064 89.9202 145.919 88.051C144.074 65.1344 123.735 39.5474 94.1724 39.5474C49.6347 39.5474 40.0718 75.8887 38.5913 88.6336C38.3728 90.5029 36.8438 91.9837 34.9749 91.9837H3.95621C2.08732 91.9837 0.558239 90.5029 0.558239 88.6336C0.533963 81.9091 0.461158 70.9849 0.339797 58.7255C0.194173 40.3242 0.0242697 18.9127 0 3.98291C0 2.11365 1.50481 0.632812 3.3737 0.632812ZM236.305 231.887H204.145C202.277 231.887 200.772 233.368 200.772 235.237C200.796 250.167 200.966 271.578 201.112 289.979C201.209 302.239 201.306 313.163 201.33 319.888C201.33 321.757 202.835 323.262 204.704 323.262H235.722C237.591 323.262 239.12 321.757 239.339 319.888C240.844 307.143 250.406 270.801 294.944 270.801C324.482 270.801 344.822 296.413 346.691 319.305C346.836 321.174 348.341 322.679 350.21 322.679H381.787C383.656 322.679 385.185 321.174 385.112 319.305C383.51 270.753 347.297 233.562 294.944 233.562C268.1 233.562 251.863 240.748 244.387 244.874C242.179 246.113 239.679 244.705 239.679 242.204V235.261C239.679 233.392 238.174 231.887 236.305 231.887ZM4.51445 222.298H34.4166C36.9166 222.298 38.9068 220.283 39.1495 217.807C40.9213 199.381 53.1783 169.279 93.056 169.279C128.492 169.279 143.686 198.653 145.797 217.807C146.089 220.283 148.079 222.298 150.579 222.298H180.457C182.957 222.298 184.971 220.283 184.801 217.807C182.714 187.777 160.02 129.223 93.056 129.223C19.1743 129.223 1.72326 188.166 0.121356 217.807C1.55084e-06 220.283 2.01451 222.298 4.51445 222.298ZM150.555 230.187H180.457C182.957 230.187 184.971 232.178 184.85 234.678C183.272 264.295 165.797 323.262 91.9152 323.262C24.9508 323.262 2.25722 264.708 0.169899 234.678C-1.55084e-06 232.178 2.01451 230.187 4.51445 230.187H34.4166C36.8923 230.187 38.9068 232.202 39.1738 234.678C41.2854 253.832 56.5035 283.206 91.9152 283.206C131.793 283.206 144.074 253.08 145.822 234.654C146.064 232.178 148.079 230.187 150.555 230.187Z" fill="#C7F603"/>
</svg>
